<svg xmlns="http://www.w3.org/2000/svg" version="1.1" xmlns:xlink="http://www.w3.org/1999/xlink" xmlns:svgjs="http://svgjs.dev/svgjs" width="2000" height="777" viewBox="0 0 2000 777"><g transform="matrix(1,0,0,1,-1.2121212121212466,-2.3925889199954327)"><svg viewBox="0 0 396 154" data-background-color="#ffffff" preserveAspectRatio="xMidYMid meet" height="777" width="2000" xmlns="http://www.w3.org/2000/svg" xmlns:xlink="http://www.w3.org/1999/xlink"><g id="tight-bounds" transform="matrix(1,0,0,1,0.2400000000000091,0.4742068129720707)"><svg viewBox="0 0 395.52 153.05158637405586" height="153.05158637405586" width="395.52"><g><svg viewBox="0 0 665.4023119276269 257.48604221654443" height="153.05158637405586" width="395.52"><g transform="matrix(1,0,0,1,267.904711927627,48.316493897989275)"><svg viewBox="0 0 397.4975999999999 160.85305442056588" height="160.85305442056588" width="397.4975999999999"><g id="textblocktransform"><svg viewBox="0 0 397.4975999999999 160.85305442056588" height="160.85305442056588" width="397.4975999999999" id="textblock"><g><rect width="397.4975999999999" height="8.49995653875353" x="0" y="104.26740982164387" fill="#8789fe" opacity="1" stroke-width="0" stroke="transparent" fill-opacity="1" class="rect-yte-0" data-fill-palette-color="primary" rx="1%" id="yte-0" data-palette-color="#8789fe"></rect></g><g transform="matrix(1,0,0,1,0.9887999999999693,0)"><svg viewBox="0 0 395.52 94.2543720142117" height="94.2543720142117" width="395.52"><g transform="matrix(1,0,0,1,0,0)"><svg width="395.52" viewBox="0.4 -34 200.5633333333333 47.8" height="94.2543720142117" data-palette-color="#8789fe"><path d="M11.55 0.5L11.55 0.5Q10.95 0.5 10.33 0.3 9.7 0.1 9.3-0.65 8.9-1.4 8.9-2.95L8.9-2.95Q8.9-4.05 9.08-5.65 9.25-7.25 9.55-9.1L9.55-9.1Q9.95-11.6 10.23-14.38 10.5-17.15 10.5-20.05L10.5-20.05Q10.5-22.4 10.28-24.13 10.05-25.85 9.7-26.8L9.7-26.8Q7.8-26.75 6.1-26.55 4.4-26.35 2.65-25.9L2.65-25.9Q2.2-25.85 1.88-25.78 1.55-25.7 1.25-25.7L1.25-25.7Q0.8-25.7 0.6-25.88 0.4-26.05 0.4-26.75L0.4-26.75Q0.4-27.6 0.65-28.53 0.9-29.45 1.4-30.1L1.4-30.1Q1.9-30.8 2.58-31.13 3.25-31.45 4.05-31.55L4.05-31.55Q5.3-31.7 7.25-31.83 9.2-31.95 11.53-32.05 13.85-32.15 16.1-32.15L16.1-32.15Q19.75-32.15 21.33-32.1 22.9-32.05 23.45-31.95L23.45-31.95Q24.15-31.85 24.43-31.53 24.7-31.2 24.7-30.5L24.7-30.5Q24.7-29.15 23.5-27.8L23.5-27.8Q23-27.2 22.45-26.88 21.9-26.55 21-26.6L21-26.6Q20.2-26.7 18.65-26.75 17.1-26.8 15.2-26.8L15.2-26.8Q15.15-25.05 14.93-22.73 14.7-20.4 14.4-18.05L14.4-18.05Q14.1-15.75 13.9-13.45 13.7-11.15 13.7-9.25L13.7-9.25Q13.7-7.5 14.03-6.18 14.35-4.85 15.35-3.9L15.35-3.9Q16.05-3.2 16.05-2.4L16.05-2.4Q16.05-1.3 14.8-0.4 13.55 0.5 11.55 0.5ZM28.95 0.65L28.95 0.65Q25.15 0.65 23.02-1.53 20.9-3.7 20.9-7.6L20.9-7.6Q20.9-11.15 22.45-14.05 24-16.95 26.62-18.68 29.25-20.4 32.4-20.4L32.4-20.4Q35.4-20.4 37.2-18.93 39-17.45 39-15L39-15Q39-13.05 37.8-11.4 36.6-9.75 34.6-8.78 32.6-7.8 30.15-7.8L30.15-7.8Q27.15-7.8 25.25-9.15L25.25-9.15Q25.3-6.85 26.82-5.45 28.35-4.05 30.75-4.05L30.75-4.05Q32.2-4.05 33.72-4.58 35.25-5.1 36.35-6L36.35-6Q37.05-6.6 37.65-6.6L37.65-6.6Q38.15-6.6 38.47-6.28 38.8-5.95 38.8-5.45L38.8-5.45Q38.8-4.35 36.9-2.55L36.9-2.55Q33.55 0.65 28.95 0.65ZM29.7-11.1L29.7-11.1Q31.5-11.1 32.7-11.85 33.9-12.6 33.9-13.75L33.9-13.75Q33.9-14.7 33.1-15.23 32.3-15.75 30.9-15.75L30.9-15.75Q29.05-15.75 27.67-14.78 26.3-13.8 25.7-12.05L25.7-12.05Q26.4-11.6 27.5-11.35 28.6-11.1 29.7-11.1ZM49.89 0.65L49.89 0.65Q46.39 0.65 44.42-1.48 42.45-3.6 42.45-7.4L42.45-7.4Q42.45-11.15 44.04-14.1 45.64-17.05 48.45-18.75 51.24-20.45 54.8-20.45L54.8-20.45Q57.19-20.45 58.59-19.65 59.99-18.85 59.99-17.45L59.99-17.45Q59.99-16.2 58.8-15L58.8-15Q58.34-14.55 57.62-14.18 56.89-13.8 56.49-13.8L56.49-13.8Q56.05-13.8 55.74-14.15L55.74-14.15Q55.24-14.7 54.45-15.2 53.64-15.7 52.2-15.7L52.2-15.7Q49.74-15.7 48.2-14.03 46.64-12.35 46.64-9.65L46.64-9.65Q46.64-7.2 48.05-5.7 49.45-4.2 51.74-4.2L51.74-4.2Q52.95-4.2 54.37-4.63 55.8-5.05 56.89-5.85L56.89-5.85Q57.44-6.35 58.05-6.35L58.05-6.35Q59.05-6.35 59.05-5.1L59.05-5.1Q59.05-3.45 57.39-1.95L57.39-1.95Q56.14-0.8 54.07-0.08 51.99 0.65 49.89 0.65ZM64.69 0.55L64.69 0.55Q63.99 0.55 63.49 0.23 62.99-0.1 63.09-0.65L63.09-0.65Q63.84-4.65 64.37-8.78 64.89-12.9 64.89-17.1L64.89-17.1Q64.89-20.8 64.64-23.8 64.39-26.8 63.04-29.55L63.04-29.55Q62.79-30.1 62.64-30.5 62.49-30.9 62.49-31.25L62.49-31.25Q62.49-32.2 63.62-33.1 64.74-34 65.99-34L65.99-34Q67.74-34 68.39-31.8 69.04-29.6 69.04-25.3L69.04-25.3Q69.04-20.15 68.44-16.32 67.84-12.5 67.39-10.5L67.39-10.5 67.59-10.4Q68.59-13.05 70.02-15.35 71.44-17.65 73.34-19.05 75.24-20.45 77.74-20.45L77.74-20.45Q80.39-20.45 81.77-18.85 83.14-17.25 83.14-14.9L83.14-14.9Q83.14-13.9 82.94-12.98 82.74-12.05 82.49-11.2L82.49-11.2Q82.24-10.4 82.04-9.58 81.84-8.75 81.84-7.9L81.84-7.9Q81.84-6.35 82.59-5.38 83.34-4.4 84.59-4L84.59-4Q84.94-3.9 85.12-3.73 85.29-3.55 85.29-3.1L85.29-3.1Q85.29-2.65 84.99-1.8 84.69-0.95 83.89-0.23 83.09 0.5 81.54 0.5L81.54 0.5Q79.54 0.5 78.44-0.93 77.34-2.35 77.34-4.6L77.34-4.6Q77.34-5.7 77.57-6.85 77.79-8 78.09-9.05L78.09-9.05Q78.34-10.1 78.54-11.03 78.74-11.95 78.74-12.6L78.74-12.6Q78.74-14.9 76.34-14.9L76.34-14.9Q74.34-14.9 72.82-13.48 71.29-12.05 70.22-9.88 69.14-7.7 68.44-5.4L68.44-5.4 68.44-3.7Q68.44-1.85 67.37-0.65 66.29 0.55 64.69 0.55ZM96.39 0.65L96.39 0.65Q93.94 0.65 91.87-0.08 89.79-0.8 88.54-2.1 87.29-3.4 87.29-5.15L87.29-5.15Q87.29-6.3 87.84-7.18 88.39-8.05 89.34-8.05L89.34-8.05Q89.94-8.05 90.59-7.6L90.59-7.6Q91.84-6.5 93.81-5.68 95.79-4.85 98.04-4.85L98.04-4.85Q100.99-4.85 102.87-6.03 104.74-7.2 104.74-9.2L104.74-9.2Q104.74-11.1 102.99-11.95 101.24-12.8 98.14-13.55L98.14-13.55Q95.84-14.1 93.72-14.95 91.59-15.8 90.22-17.32 88.84-18.85 88.84-21.4L88.84-21.4Q88.84-23.35 89.69-25.28 90.54-27.2 92.19-28.8 93.84-30.4 96.19-31.38 98.54-32.35 101.49-32.35L101.49-32.35Q103.69-32.35 105.52-31.85 107.34-31.35 108.42-30.45 109.49-29.55 109.49-28.25L109.49-28.25Q109.49-27.25 108.94-26.5 108.39-25.75 107.64-25.33 106.89-24.9 106.34-24.9L106.34-24.9Q105.84-24.9 104.99-25.35L104.99-25.35Q103.59-26.1 101.87-26.53 100.14-26.95 98.84-26.95L98.84-26.95Q96.39-26.95 94.87-25.88 93.34-24.8 93.34-23.35L93.34-23.35Q93.34-21.75 95.27-20.68 97.19-19.6 102.19-18.4L102.19-18.4Q105.59-17.5 107.49-15.93 109.39-14.35 109.39-10.95L109.39-10.95Q109.39-7.9 107.77-5.25 106.14-2.6 103.22-0.98 100.29 0.65 96.39 0.65ZM119.99 0.65L119.99 0.65Q116.94 0.65 115.61-1.38 114.29-3.4 114.29-6.6L114.29-6.6Q114.29-7.75 114.41-8.85 114.54-9.95 114.69-11.05L114.69-11.05Q114.84-12.15 114.99-13.2 115.14-14.25 115.24-15.2L115.24-15.2Q114.19-14.9 113.14-14.9L113.14-14.9Q112.04-14.9 112.04-15.8L112.04-15.8Q112.04-16.75 112.89-18.13 113.74-19.5 115.01-20.85 116.29-22.2 117.56-23.13 118.84-24.05 119.74-24.05L119.74-24.05Q120.84-24.05 120.84-22.15L120.84-22.15Q120.84-21.65 120.76-21.13 120.69-20.6 120.59-20.05L120.59-20.05Q121.54-20.25 122.51-20.4 123.49-20.55 124.39-20.55L124.39-20.55Q125.54-20.55 126.16-20.15 126.79-19.75 126.79-18.6L126.79-18.6Q126.79-17.4 126.21-16.2 125.64-15 124.94-15L124.94-15Q124.79-15 124.44-15.05 124.09-15.1 123.59-15.2L123.59-15.2Q122.94-15.35 121.94-15.5 120.94-15.65 119.54-15.65L119.54-15.65Q119.19-14.1 118.91-12.48 118.64-10.85 118.64-9.55L118.64-9.55Q118.64-6.65 120.09-5.6 121.54-4.55 124.29-4.55L124.29-4.55Q125.14-4.55 125.49-4.28 125.84-4 125.84-3.3L125.84-3.3Q125.84-1.65 124.14-0.5 122.44 0.65 119.99 0.65ZM135.69 0.65L135.69 0.65Q133.19 0.65 131.81-0.8 130.44-2.25 130.44-5L130.44-5Q130.44-6.95 130.99-9L130.99-9Q131.24-9.85 131.39-10.7 131.54-11.55 131.54-12.4L131.54-12.4Q131.54-14.6 130.19-15.25L130.19-15.25Q128.89-15.95 128.89-16.75L128.89-16.75Q128.89-17.55 129.56-18.35 130.24-19.15 131.24-19.68 132.24-20.2 133.24-20.2L133.24-20.2Q136.09-20.2 136.09-15.55L136.09-15.55Q136.09-14.05 135.86-12.78 135.64-11.5 135.34-10.35L135.34-10.35Q135.14-9.55 135.01-8.75 134.89-7.95 134.89-7.35L134.89-7.35Q134.89-4.85 137.34-4.85L137.34-4.85Q139.64-4.85 141.64-7.3 143.64-9.75 144.94-14.15L144.94-14.15 144.89-15.1Q144.79-17.6 145.76-18.9 146.74-20.2 148.64-20.2L148.64-20.2Q150.29-20.2 150.29-19.15L150.29-19.15Q150.29-18.8 150.16-18.25 150.04-17.7 149.79-16.95L149.79-16.95Q149.29-15.1 148.94-13.03 148.59-10.95 148.59-9.2L148.59-9.2Q148.59-7.25 149.19-5.98 149.79-4.7 151.44-4.25L151.44-4.25Q151.89-4.2 152.16-3.98 152.44-3.75 152.44-3.05L152.44-3.05Q152.44-1.85 151.44-0.7 150.44 0.45 148.54 0.45L148.54 0.45Q144.89 0.45 144.89-4.7L144.89-4.7Q144.89-5.6 145.04-7.4L145.04-7.4 144.94-7.45Q141.79 0.65 135.69 0.65ZM161.53 0.65L161.53 0.65Q158.53 0.65 156.81-1.35 155.08-3.35 155.08-6.8L155.08-6.8Q155.08-9.35 155.91-11.8 156.73-14.25 158.23-16.2 159.73-18.15 161.73-19.3 163.73-20.45 166.08-20.45L166.08-20.45Q167.58-20.45 168.76-20 169.93-19.55 170.83-18.85L170.83-18.85Q170.78-22.25 170.48-24.95 170.18-27.65 169.03-29.95L169.03-29.95Q168.83-30.35 168.71-30.68 168.58-31 168.58-31.3L168.58-31.3Q168.58-32 169.16-32.6 169.73-33.2 170.58-33.6 171.43-34 172.18-34L172.18-34Q173.53-34 174.21-32.83 174.88-31.65 175.08-29.63 175.28-27.6 175.28-25L175.28-25Q175.28-21.2 174.93-18.15 174.58-15.1 174.28-12.8L174.28-12.8Q174.08-11.3 173.93-10.2 173.78-9.1 173.78-8.4L173.78-8.4Q173.78-4.85 176.83-4.2L176.83-4.2Q177.63-4.05 177.63-3.15L177.63-3.15Q177.63-2.6 177.31-1.75 176.98-0.9 176.13-0.23 175.28 0.45 173.68 0.45L173.68 0.45Q171.53 0.45 170.78-1 170.03-2.45 170.03-5.4L170.03-5.4Q168.63-2.85 166.48-1.1 164.33 0.65 161.53 0.65ZM163.08-4.7L163.08-4.7Q164.48-4.7 165.88-5.6 167.28-6.5 168.38-8.05L168.38-8.05Q169.03-9 169.56-10.23 170.08-11.45 170.53-12.7L170.53-12.7Q167.98-15 164.88-15L164.88-15Q162.18-15 160.58-13.38 158.98-11.75 158.98-9.35L158.98-9.35Q158.98-7.3 160.18-6 161.38-4.7 163.08-4.7ZM181.83 13.8L181.83 13.8Q179.78 13.8 178.31 12.7 176.83 11.6 176.83 9.75L176.83 9.75Q176.83 8.3 177.71 7.28 178.58 6.25 179.88 6.25L179.88 6.25Q180.48 6.25 180.73 6.45 180.98 6.65 181.13 6.9L181.13 6.9Q181.53 7.55 182.06 8.03 182.58 8.5 183.48 8.5L183.48 8.5Q184.68 8.5 185.81 7.65 186.93 6.8 187.88 5.7L187.88 5.7Q188.73 4.75 189.93 2.98 191.13 1.2 192.33-1.05L192.33-1.05Q191.23-0.1 190.28 0.33 189.33 0.75 188.48 0.75L188.48 0.75Q187.43 0.75 186.43-0.03 185.43-0.8 185.18-2.95L185.18-2.95Q185.03-4.6 184.61-6.6 184.18-8.6 183.56-10.48 182.93-12.35 182.03-13.65L182.03-13.65Q181.68-14.25 181.23-14.55 180.78-14.85 179.93-14.95L179.93-14.95Q179.33-15 179.16-15.3 178.98-15.6 178.98-16.25L178.98-16.25Q178.98-18.05 179.98-19.15 180.98-20.25 182.68-20.25L182.68-20.25Q184.73-20.25 185.63-18.68 186.53-17.1 187.18-14.85L187.18-14.85Q187.43-13.95 187.71-12.48 187.98-11 188.21-9.3 188.43-7.6 188.53-6.05L188.53-6.05Q188.58-4.95 189.78-4.95L189.78-4.95Q191.38-4.95 192.83-5.95 194.28-6.95 195.21-8.55 196.13-10.15 196.13-11.9L196.13-11.9Q196.13-12.9 195.88-13.7 195.63-14.5 195.03-15.1L195.03-15.1Q194.53-15.7 194.23-16.07 193.93-16.45 193.93-16.95L193.93-16.95Q193.93-17.8 194.73-18.55 195.53-19.3 196.66-19.8 197.78-20.3 198.63-20.3L198.63-20.3Q200.13-20.3 200.63-18.88 201.13-17.45 200.88-15.75L200.88-15.75Q200.58-13.4 199.68-10.2 198.78-7 197.36-3.5 195.93 0 194.11 3.28 192.28 6.55 190.23 9L190.23 9Q188.48 11.15 186.33 12.48 184.18 13.8 181.83 13.8Z" opacity="1" transform="matrix(1,0,0,1,0,0)" fill="#8789fe" class="wordmark-text-0" data-fill-palette-color="primary" id="text-0"></path></svg></g></svg></g><g transform="matrix(1,0,0,1,0,122.78040416782957)"><svg viewBox="0 0 232.20979200000002 38.07265025273632" height="38.07265025273632" width="232.20979200000002"><g transform="matrix(1,0,0,1,0,0)"><svg width="232.20979200000002" viewBox="1.95 -35.4 220.81 36.21" height="38.07265025273632" data-palette-color="#8789fe"><path d="M24.1-9.4L24.1-9.4Q24.1-6.88 22.74-4.54 21.39-2.2 18.47-0.7 15.55 0.81 10.84 0.81L10.84 0.81Q8.15 0.81 6.15 0.34 4.15-0.12 3.05-0.59 1.95-1.05 1.95-1.05L1.95-1.05 1.95-9.91 5.1-9.91 5.76-4.25Q5.81-3.96 6.08-3.61 6.35-3.27 6.59-3.15L6.59-3.15Q6.71-3.13 8.02-2.56 9.33-2 11.65-2L11.65-2Q14.84-2 16.92-3.56 18.99-5.13 18.99-7.91L18.99-7.91Q18.99-9.42 18.15-10.56 17.31-11.69 15.97-12.57 14.62-13.45 13.1-14.17 11.57-14.89 10.21-15.55L10.21-15.55Q8.15-16.53 6.4-17.64 4.64-18.75 3.56-20.39 2.49-22.02 2.49-24.56L2.49-24.56Q2.49-27.54 4-29.74 5.52-31.93 8.13-33.14 10.74-34.35 14.04-34.35L14.04-34.35Q16.72-34.35 18.77-33.83 20.83-33.3 22.41-32.79L22.41-32.79 22.85-32.64 22.85-24.85 20-24.85 19.24-29.64Q19.19-29.98 18.93-30.14 18.68-30.3 18.46-30.52L18.46-30.52Q18.26-30.66 17.25-31.15 16.24-31.64 14.11-31.64L14.11-31.64Q11.11-31.64 9.38-29.97 7.64-28.3 7.64-25.76L7.64-25.76Q7.64-23.46 9.44-21.95 11.23-20.43 14.6-19.14L14.6-19.14Q19.14-17.43 21.62-15.3 24.1-13.16 24.1-9.4ZM36.94-32.35L36.94-32.35Q36.94-31.08 36.06-30.16 35.18-29.25 33.91-29.25L33.91-29.25Q32.64-29.25 31.72-30.16 30.81-31.08 30.81-32.35L30.81-32.35Q30.81-33.64 31.72-34.52 32.64-35.4 33.91-35.4L33.91-35.4Q35.18-35.4 36.06-34.52 36.94-33.64 36.94-32.35ZM39.5-1.95L39.5 0 27.76 0 27.76-1.95 30.2-2.1Q31.25-2.17 31.25-3.2L31.25-3.2 31.25-21.04 27.81-21.04 27.81-22.8 33.91-24.71 35.89-24.71 35.89-3.2Q35.89-2.73 36.19-2.44 36.5-2.15 36.94-2.1L36.94-2.1 39.5-1.95ZM68.55-1.95L68.55 0 57.51 0 57.51-1.95 59.61-2.1Q60.05-2.15 60.36-2.44 60.66-2.73 60.66-3.2L60.66-3.2 60.66-16.21Q60.66-18.58 59.57-19.81 58.47-21.04 55.85-21.04L55.85-21.04Q54.44-21.04 53.03-20.64 51.63-20.24 50.36-19.6L50.36-19.6 50.36-3.2Q50.36-2.17 51.41-2.1L51.41-2.1 53.51-1.95 53.51 0 42.21 0 42.21-1.95 44.65-2.1Q45.7-2.17 45.7-3.2L45.7-3.2 45.7-20.56 42.21-20.56 42.21-22.19 48.31-24.1 50.36-24.1 50.36-21.61Q52.46-22.8 54.67-23.75 56.88-24.71 58.61-24.71L58.61-24.71Q61.88-24.71 63.59-22.67 65.3-20.63 65.3-16.99L65.3-16.99 65.3-3.2Q65.3-2.73 65.61-2.44 65.91-2.15 66.35-2.1L66.35-2.1 68.55-1.95ZM91.15-4.71L91.15-4.71 91.15-1.86Q89.47-0.95 87.36-0.17 85.25 0.61 82.71 0.61L82.71 0.61Q79.22 0.61 76.64-1.03 74.06-2.66 72.66-5.48 71.26-8.3 71.26-11.89L71.26-11.89Q71.26-16.09 72.93-18.95 74.6-21.8 77.35-23.25 80.1-24.71 83.29-24.71L83.29-24.71Q86.59-24.71 88.82-23.43 91.06-22.14 91.06-19.7L91.06-19.7Q91.06-18.24 90.14-17.49 89.23-16.75 88.1-16.75L88.1-16.75Q87.27-16.75 86.66-17.03 86.05-17.31 85.59-17.6L85.59-17.6 85.59-21.95Q84.44-22.61 83.49-22.61L83.49-22.61Q81.27-22.61 79.67-21.3 78.07-20 77.21-17.72 76.36-15.45 76.36-12.55L76.36-12.55Q76.36-9.79 77.29-7.51 78.22-5.22 80.06-3.88 81.9-2.54 84.64-2.54L84.64-2.54Q86.37-2.54 87.96-3.1 89.54-3.66 91.15-4.71ZM115.64-5.54L115.64-2.49Q113.54-1.2 111.11-0.29 108.68 0.61 106.14 0.61L106.14 0.61Q103.12 0.61 100.47-0.74 97.82-2.1 96.18-4.86 94.55-7.62 94.55-11.79L94.55-11.79Q94.55-15.7 96.06-18.6 97.57-21.51 100.23-23.11 102.9-24.71 106.29-24.71L106.29-24.71Q110.95-24.71 113.3-21.81 115.64-18.92 115.64-14.45L115.64-14.45Q115.64-14.21 115.64-13.81 115.64-13.4 115.59-13.06L115.59-13.06 99.38-13.06Q99.38-11.16 99.78-9.27 100.19-7.37 101.14-5.83 102.09-4.3 103.7-3.37 105.31-2.44 107.73-2.44L107.73-2.44Q109.88-2.44 111.92-3.43 113.95-4.42 115.64-5.54L115.64-5.54ZM99.65-15.31L110.63-15.31 110.63-16.41Q110.63-18.87 109.45-20.56 108.27-22.24 105.78-22.24L105.78-22.24Q103.31-22.24 101.58-20.39 99.84-18.53 99.65-15.31L99.65-15.31ZM141.66-7.86L141.66 0 120.01 0 120.01-3.34 122.33-5.22Q126.18-8.35 129.25-11.18 132.31-14.01 134.09-16.74 135.88-19.46 135.88-22.24L135.88-22.24Q135.88-24.34 135-25.85 134.12-27.37 132.71-28.17 131.31-28.98 129.75-28.98L129.75-28.98Q128.21-28.98 127.09-28.48 125.96-27.98 125.67-27.78L125.67-27.78 125.67-22.9Q125.43-22.66 124.82-22.39 124.21-22.12 123.43-22.12L123.43-22.12Q122.35-22.12 121.5-22.79 120.64-23.46 120.64-24.85L120.64-24.85Q120.64-26.81 122.06-28.36 123.47-29.91 125.79-30.82 128.11-31.74 130.8-31.74L130.8-31.74Q135.51-31.74 138.31-29.24 141.1-26.73 141.1-22.73L141.1-22.73Q141.1-19.7 139-16.65 136.9-13.6 133.34-10.44 129.77-7.28 125.38-3.88L125.38-3.88 138.46-3.88 139.27-7.86 141.66-7.86ZM168.34-15.58L168.34-15.58Q168.34-11.25 167.12-7.65 165.9-4.05 163.46-1.88 161.02 0.29 157.33 0.29L157.33 0.29Q153.67 0.29 151.24-1.88 148.81-4.05 147.6-7.65 146.4-11.25 146.4-15.58L146.4-15.58Q146.4-19.9 147.6-23.58 148.81-27.27 151.24-29.5 153.67-31.74 157.33-31.74L157.33-31.74Q161.02-31.74 163.46-29.5 165.9-27.27 167.12-23.58 168.34-19.9 168.34-15.58ZM163.27-15.58L163.27-15.58Q163.27-18.12 163.01-20.52 162.75-22.92 162.11-24.84 161.46-26.76 160.3-27.89 159.14-29.03 157.33-29.03L157.33-29.03Q155.55-29.03 154.39-27.89 153.23-26.76 152.6-24.84 151.96-22.92 151.71-20.52 151.45-18.12 151.45-15.58L151.45-15.58Q151.45-13.04 151.71-10.68 151.96-8.33 152.6-6.46 153.23-4.59 154.39-3.5 155.55-2.42 157.33-2.42L157.33-2.42Q159.14-2.42 160.3-3.5 161.46-4.59 162.11-6.46 162.75-8.33 163.01-10.68 163.27-13.04 163.27-15.58ZM195.66-7.86L195.66 0 174.01 0 174.01-3.34 176.33-5.22Q180.18-8.35 183.25-11.18 186.31-14.01 188.09-16.74 189.88-19.46 189.88-22.24L189.88-22.24Q189.88-24.34 189-25.85 188.12-27.37 186.71-28.17 185.31-28.98 183.75-28.98L183.75-28.98Q182.21-28.98 181.09-28.48 179.96-27.98 179.67-27.78L179.67-27.78 179.67-22.9Q179.43-22.66 178.82-22.39 178.21-22.12 177.42-22.12L177.42-22.12Q176.35-22.12 175.5-22.79 174.64-23.46 174.64-24.85L174.64-24.85Q174.64-26.81 176.06-28.36 177.47-29.91 179.79-30.82 182.11-31.74 184.8-31.74L184.8-31.74Q189.51-31.74 192.3-29.24 195.1-26.73 195.1-22.73L195.1-22.73Q195.1-19.7 193-16.65 190.9-13.6 187.34-10.44 183.77-7.28 179.38-3.88L179.38-3.88 192.46-3.88 193.27-7.86 195.66-7.86ZM222.76-12.72L222.76-9.01 219.32-9.01 219.32 0.29 214.51 0.29 214.51-9.01 200.91-9.01 200.91-12.99 215.04-30.81 219.32-30.81 219.32-12.72 222.76-12.72ZM203.4-12.72L214.51-12.72 214.51-26.12 215.58-25.9 204.08-11.43 203.4-12.72Z" opacity="1" transform="matrix(1,0,0,1,0,0)" fill="#8789fe" class="slogan-text-1" data-fill-palette-color="secondary" id="text-1"></path></svg></g></svg></g></svg></g></svg></g><g><svg viewBox="0 0 245.65351679999995 257.48604221654443" height="257.48604221654443" width="245.65351679999995"><g><svg xmlns="http://www.w3.org/2000/svg" xmlns:xlink="http://www.w3.org/1999/xlink" version="1.1" x="0" y="0" viewBox="0 0 95.5 100.1" style="enable-background:new 0 0 95.4 100;" xml:space="preserve" id="icon-0" width="245.65351679999995" height="257.48604221654443" class="icon-icon-0" data-fill-palette-color="accent"><path d="M22.7 81.7H11.4C7.6 81.7 4.6 78.6 4.6 74.9V43C4.6 41.7 3.6 40.7 2.3 40.7S0 41.8 0 43V74.8C0 80.3 3.9 84.9 9.1 86V97.6C9.1 98.9 10.1 99.9 11.4 99.9S13.7 98.9 13.7 97.6V86.2H22.8C24.1 86.2 25.1 85.2 25.1 83.9S24 81.7 22.7 81.7M39.8 23.7C44.2 23.7 47.8 27.3 47.8 31.7S44.2 39.7 39.8 39.7 31.8 36.1 31.8 31.7 35.4 23.7 39.8 23.7M93.1 61.2H34.2C32.9 61.2 31.9 62.2 31.9 63.5S32.9 65.8 34.2 65.8H61.4L61.3 97.8C61.3 99.1 62.3 100.1 63.6 100.1S65.9 99.1 65.9 97.8L66 65.8H93.2C94.5 65.8 95.5 64.8 95.5 63.5 95.4 62.2 94.4 61.2 93.1 61.2M56.8 49.8H56.1L50.8 44.5C50.4 44.1 49.6 44.1 49.2 44.5S48.8 45.7 49.2 46.1L52.9 49.8H44.8L32.4 39.3C31.4 38.4 31 38 30.1 37.5 26.7 35.9 22.6 37.4 21 40.8L7.7 69.7C6.1 73.1 7.6 77.2 11 78.8 11.9 79.2 12.8 79.4 13.7 79.4H30L20.7 92.9C19.3 95 19.8 97.8 21.9 99.2S26.8 100.1 28.2 98L42.4 77.4C42.7 76.9 43 76.4 43.1 75.8 43.2 75.5 43.2 75.2 43.2 74.9V74.6C43.2 74.4 43.2 74.2 43.1 74 43.1 73.8 43 73.7 43 73.6S42.9 73.3 42.9 73.2C42.8 73.1 42.8 72.9 42.7 72.8S42.6 72.6 42.5 72.4C42.4 72.3 42.3 72.1 42.2 72L41.9 71.7C41.7 71.5 41.6 71.4 41.4 71.3 41.3 71.3 41.3 71.2 41.2 71.2 40.7 70.9 40.2 70.6 39.6 70.5 39.3 70.4 39 70.4 38.7 70.4H22.4L31.6 50.6 40.2 57.9C41.1 58.6 42.1 59 43.1 59H56.7C59.2 59 61.2 57 61.2 54.5 61.4 51.9 59.3 49.8 56.8 49.8M88.6 59.1H72.7C71.4 59.1 70.4 58.1 70.4 56.8S71.4 54.5 72.7 54.5H88.6C89.9 54.5 90.9 55.5 90.9 56.8S89.9 59.1 88.6 59.1M90.9 52.3H77.3C76 52.3 75 51.3 75 50S76 47.7 77.3 47.7H90.9C92.2 47.7 93.2 48.7 93.2 50S92.2 52.3 90.9 52.3M72.7 22.7C66.4 22.7 61.3 17.6 61.3 11.3S66.5 0 72.7 0 84.1 5.1 84.1 11.4 79 22.7 72.7 22.7M72.7 4.5C68.9 4.5 65.9 7.6 65.9 11.3S69 18.1 72.7 18.1 79.5 15 79.5 11.3 76.5 4.5 72.7 4.5M72.7 12.5H68.2C67.6 12.5 67.1 12 67.1 11.4S67.6 10.3 68.2 10.3H71.6V6.8C71.6 6.2 72.1 5.7 72.7 5.7S73.8 6.2 73.8 6.8V11.3C73.9 12 73.4 12.5 72.7 12.5" fill="#8789fe" data-fill-palette-color="accent"></path></svg></g></svg></g></svg></g><defs></defs></svg><rect width="395.52" height="153.05158637405586" fill="none" stroke="none" visibility="hidden"></rect></g></svg></g></svg>